<svg xmlns="http://www.w3.org/2000/svg" width="1661.1" height="500" viewBox="0 0 1661.1 500">
  <g id="Group_2" data-name="Group 2" transform="translate(-141.9 -2305)">
    <path id="Path_12" data-name="Path 12" d="M38.1-175.2a21.427,21.427,0,0,1-15.75-6.45A21.427,21.427,0,0,1,15.9-197.4a21.427,21.427,0,0,1,6.45-15.75A21.427,21.427,0,0,1,38.1-219.6a21.427,21.427,0,0,1,15.75,6.45A21.427,21.427,0,0,1,60.3-197.4a21.427,21.427,0,0,1-6.45,15.75A21.427,21.427,0,0,1,38.1-175.2ZM21.6-153h33V0h-33Zm74.1,0h31.5v20.1h1.5q6.6-10.8,19.65-17.85a57.524,57.524,0,0,1,27.75-7.05q27.9,0,42.45,16.35T233.1-96.9V0h-33V-92.4q0-18-8.85-26.4t-24.45-8.4a33.458,33.458,0,0,0-19.8,6.15,40.931,40.931,0,0,0-13.5,16.35,50.788,50.788,0,0,0-4.8,21.9V0h-33Zm151.5,0h36.9L326.4-42.6h1.2L370.8-153h36L343.2,0h-33ZM495.3,4.8q-23.1,0-41.4-10.65A74.894,74.894,0,0,1,425.4-35.1a84.663,84.663,0,0,1-10.2-41.4,84.663,84.663,0,0,1,10.2-41.4,74.894,74.894,0,0,1,28.5-29.25q18.3-10.65,41.4-10.65T536.7-147a75.955,75.955,0,0,1,28.5,29.4,84.057,84.057,0,0,1,10.2,41.1,84.663,84.663,0,0,1-10.2,41.4A74.894,74.894,0,0,1,536.7-5.85Q518.4,4.8,495.3,4.8Zm0-30.3a46.494,46.494,0,0,0,23.4-6.15,45.215,45.215,0,0,0,17.25-17.7Q542.4-60.9,542.4-76.5t-6.45-27a45.481,45.481,0,0,0-17.25-17.55,46.494,46.494,0,0,0-23.4-6.15,46.494,46.494,0,0,0-23.4,6.15,45.481,45.481,0,0,0-17.25,17.55q-6.45,11.4-6.45,27t6.45,27.15a45.215,45.215,0,0,0,17.25,17.7A46.494,46.494,0,0,0,495.3-25.5ZM621.6-175.2a21.427,21.427,0,0,1-15.75-6.45,21.427,21.427,0,0,1-6.45-15.75,21.427,21.427,0,0,1,6.45-15.75,21.427,21.427,0,0,1,15.75-6.45,21.427,21.427,0,0,1,15.75,6.45,21.427,21.427,0,0,1,6.45,15.75,21.427,21.427,0,0,1-6.45,15.75A21.427,21.427,0,0,1,621.6-175.2ZM605.1-153h33V0h-33ZM748.5,4.8q-22.8,0-40.95-10.5a73.376,73.376,0,0,1-28.2-28.95Q669.3-53.1,669.3-76.5t10.05-41.85a73.376,73.376,0,0,1,28.2-28.95q18.15-10.5,40.95-10.5,25.2,0,42.9,11.4a62.664,62.664,0,0,1,25.2,30.9l-30.3,12.6q-10.2-24.3-38.7-24.3a42.745,42.745,0,0,0-22.65,6.3,45.253,45.253,0,0,0-16.5,17.85Q702.3-91.5,702.3-76.5a56.523,56.523,0,0,0,6.15,26.7,45.019,45.019,0,0,0,16.5,18,42.745,42.745,0,0,0,22.65,6.3q14.4,0,24.75-6.45A40.837,40.837,0,0,0,788.1-50.4l29.7,12.9A69.743,69.743,0,0,1,791.4-6.6Q773.7,4.8,748.5,4.8Zm165.9,0q-22.5,0-40.35-10.5a73.991,73.991,0,0,1-27.9-28.95Q836.1-53.1,836.1-76.2a86.8,86.8,0,0,1,9.75-40.65A76.679,76.679,0,0,1,873-146.7q17.4-11.1,39.6-11.1,23.1,0,40.05,10.2a66.787,66.787,0,0,1,25.8,27.9q8.85,17.7,8.85,39.9a76.682,76.682,0,0,1-.9,10.5H869.1q1.8,21.3,15.15,32.85A46.005,46.005,0,0,0,915.3-24.9q14.1,0,24.45-6.45A48.429,48.429,0,0,0,956.4-48.9l27.9,13.2A82.2,82.2,0,0,1,956.1-6Q938.7,4.8,914.4,4.8Zm39.3-99.3a38.126,38.126,0,0,0-5.1-16.05,36.5,36.5,0,0,0-13.65-13.35q-9.15-5.4-22.35-5.4-15.9,0-26.85,9.45T870.6-94.5ZM1074.6,4.8q-26.4,0-43.2-11.55a62.472,62.472,0,0,1-23.7-29.55l29.4-12.9q5.4,12,15.15,18.3a40.27,40.27,0,0,0,22.35,6.3q12.3,0,20.7-4.35T1103.7-42a15.056,15.056,0,0,0-7.2-13.2q-7.2-4.8-22.2-8.4L1056-68.1q-18.3-4.5-30.3-15.9t-12-28.8a37.456,37.456,0,0,1,7.95-23.7q7.95-10.2,21.45-15.75a76.577,76.577,0,0,1,29.4-5.55q21.3,0,37.5,8.55a50.648,50.648,0,0,1,23.4,24.75l-28.8,12.6q-8.7-17.7-31.8-17.7-11.1,0-18.6,4.5t-7.5,11.7a13.528,13.528,0,0,0,5.7,11.25q5.7,4.35,16.8,7.35l22.5,5.7q22.5,5.7,34.05,17.25A38.544,38.544,0,0,1,1137.3-43.5a40.976,40.976,0,0,1-8.25,25.35Q1120.8-7.2,1106.4-1.2A81.9,81.9,0,0,1,1074.6,4.8Z" transform="translate(126 2654)" fill="#262729"/>
    <circle id="Ellipse_1" data-name="Ellipse 1" cx="250" cy="250" r="250" transform="translate(1303 2305)" fill="#00b074"/>
    <path id="Path_13" data-name="Path 13" d="M100.8,4.8A58.679,58.679,0,0,1,71.7-2.4Q58.8-9.6,52.2-19.8H50.7V0H19.2V-214.8h33v60.3l-1.5,21.6h1.5q6.6-10.5,19.5-17.7a58.679,58.679,0,0,1,29.1-7.2,69.313,69.313,0,0,1,37.5,10.5,74.3,74.3,0,0,1,26.55,28.95Q174.6-99.9,174.6-76.5t-9.75,41.85A74.3,74.3,0,0,1,138.3-5.7,69.313,69.313,0,0,1,100.8,4.8ZM96-25.5a42.99,42.99,0,0,0,22.5-6.3,45.7,45.7,0,0,0,16.8-18,55.425,55.425,0,0,0,6.3-26.7q0-15-6.3-26.55a45.949,45.949,0,0,0-16.8-17.85A42.99,42.99,0,0,0,96-127.2a42.219,42.219,0,0,0-22.35,6.3A46.332,46.332,0,0,0,57-103.05Q50.7-91.5,50.7-76.5A55.425,55.425,0,0,0,57-49.8a46.077,46.077,0,0,0,16.65,18A42.219,42.219,0,0,0,96-25.5ZM245.4-8.4,181.8-153h36.9L261.9-48.9h1.2l42-104.1h36.3L246.9,64.8H212.1Z" transform="translate(1381 2654)" fill="#fff"/>
  </g>
</svg>
